<?xml version="1.0" encoding="utf-8"?>
<!-- Generator: Adobe Illustrator 21.0.0, SVG Export Plug-In . SVG Version: 6.00 Build 0)  -->
<svg version="1.1" id="Layer_1" xmlns="http://www.w3.org/2000/svg" xmlns:xlink="http://www.w3.org/1999/xlink" x="0px" y="0px"
	 viewBox="0 0 100 100" style="enable-background:new 0 0 100 100;" xml:space="preserve">
<style type="text/css">
	.st0{fill:#613B1D;}
	.st1{fill:url(#SVGID_1_);}
	.st2{fill:url(#SVGID_2_);}
	.st3{fill:url(#SVGID_3_);}
</style>
<g>
	<g>
		<path class="st0" d="M29,72.1c-0.5,0.9-1.6,1.6-3.4,1.6c-2.9,0-4.9-1.6-4.9-4.4c0-2.7,1.9-4.4,4.9-4.4c1.3,0,2.3,0.3,3,0.6l0,2.1
			l-0.1,0c-0.4-1.6-1.5-2.2-2.8-2.2c-1.9,0-3.1,1.5-3.1,3.8c0,2.4,1.1,3.9,2.9,3.9c1.8,0,2.8-0.8,3.2-3.2l0.1,0L29,72.1z"/>
		<path class="st0" d="M39.4,73.6h-3.6l0-0.1l0.2,0c0.4,0,0.8-0.3,0.8-0.7v-3.1h-3.9v3.1c0,0.4,0.3,0.8,0.8,0.8l0.2,0l0,0.1h-3.6
			l0-0.1l0.2,0c0.4,0,0.8-0.3,0.8-0.8V66c0-0.4-0.4-0.7-0.8-0.7l-0.2,0l0-0.1h1v0h1.7v0h1l0,0.1l-0.2,0c-0.4,0-0.8,0.3-0.8,0.7v3.1
			h3.9V66c0-0.4-0.4-0.7-0.8-0.7l-0.2,0l0-0.1h1v0h1.7v0h1l0,0.1l-0.2,0c-0.4,0-0.8,0.3-0.8,0.8v6.7h0c0,0.4,0.3,0.8,0.8,0.8l0.2,0
			L39.4,73.6z"/>
		<path class="st0" d="M44.1,73.5l0,0.1h-3.6l0-0.1l0.2,0c0.4,0,0.8-0.3,0.8-0.8V66c0-0.4-0.4-0.7-0.8-0.7l-0.2,0l0-0.1h1v0h1.7v0h1
			l0,0.1l-0.2,0c-0.4,0-0.8,0.3-0.8,0.7v6.7c0,0.4,0.3,0.8,0.8,0.8L44.1,73.5z M42.1,64.4L42.1,64.4c0.3-0.8,1.1-1.6,1.6-2.1
			c0.4,0.2,0.7,0.5,0.8,1C43.9,63.8,42.9,64.2,42.1,64.4z"/>
		<path class="st0" d="M54.8,71.1l-0.6,2.4h-6.2l0-0.1l0.2,0c0.4,0,0.8-0.3,0.8-0.8v-6.6c0-0.4-0.3-0.8-0.8-0.8h-0.2l0-0.1h1h1.7h1
			l0,0.1h-0.2c-0.4,0-0.8,0.3-0.8,0.8h0v7h1.6c1.2,0,2-0.7,2.3-1.9H54.8z"/>
		<path class="st0" d="M59,73.6h-3.6l0-0.1l0.2,0c0.4,0,0.8-0.3,0.8-0.8V66c0-0.4-0.4-0.7-0.8-0.7l-0.2,0l0-0.1h1v0h1.7v0h1l0,0.1
			l-0.2,0c-0.4,0-0.8,0.3-0.8,0.7v6.7c0,0.4,0.3,0.8,0.8,0.8l0.2,0L59,73.6z"/>
		<path class="st0" d="M69.6,65.3c0,0-0.2,0-0.2,0c-0.4,0-0.7,0.3-0.7,0.7v6.2c0,0.9,0.1,1.5,0.1,1.5h-0.1L62.6,68l0,4.8
			c0,0.4,0.3,0.7,0.7,0.7c0,0,0.2,0,0.2,0l0,0.1h-3.6l0-0.1c0,0,0.2,0,0.2,0c0.4,0,0.7-0.3,0.7-0.7v-6.2c0-0.9-0.1-1.5-0.1-1.5h0.1
			l0,0l6,5.8V66h0c0-0.4-0.3-0.7-0.7-0.7l-0.2,0l0-0.1h3.6L69.6,65.3z"/>
		<path class="st0" d="M79.6,73.6h-3.6l0-0.1l0.2,0c0.4,0,0.8-0.3,0.8-0.7v-3.1H73v3.1c0,0.4,0.3,0.8,0.8,0.8l0.2,0l0,0.1h-3.6
			l0-0.1l0.2,0c0.4,0,0.8-0.3,0.8-0.8V66c0-0.4-0.4-0.7-0.8-0.7l-0.2,0l0-0.1h1v0h1.7v0h1l0,0.1l-0.2,0c-0.4,0-0.8,0.3-0.8,0.7v3.1
			h3.9V66c0-0.4-0.4-0.7-0.8-0.7l-0.2,0l0-0.1h1v0h1.7v0h1l0,0.1l-0.2,0c-0.4,0-0.8,0.3-0.8,0.8v6.7c0,0.4,0.3,0.8,0.8,0.8l0.2,0
			L79.6,73.6z"/>
	</g>
	<g>
		<path class="st0" d="M11.2,81.4c0.1,3-3.1,4.6-5.5,3l0-0.2c0,0,2.1,0.2,2.7-2c0.1-0.3,0.1-0.7,0.1-1c0-1.5-0.8-2.4-2.2-2.4H5.1
			v10.1c0,0.6,0.5,1.1,1.1,1.1h0.2l0,0.2H1.2l0-0.2c0,0,0.2,0,0.2,0c0.6,0,1.1-0.5,1.1-1.1h0v-9.7c-0.1-0.6-0.5-1-1.1-1
			c0,0-0.2,0-0.2,0l0-0.2h1.4v0h4.4C9.9,78.1,11.2,79.5,11.2,81.4L11.2,81.4z"/>
		<path class="st0" d="M23.4,90v0.2h-5.5V90h0.2c0.4,0,0.9-0.4,0.7-1.1h0l-0.8-2.1h-4L13,88.9h0c-0.3,0.7,0.2,1.1,0.7,1.1h0.2v0.2
			h-3.7V90h0.2c0.5,0,1.1-0.3,1.5-1l4-9c0.1-0.3,0.8-1.8,0.8-2.3h0.2L21.8,89c0.4,0.7,1,1,1.5,1H23.4z M17.6,86.1l-1.7-4.2l-1.8,4.2
			H17.6z"/>
		<path class="st0" d="M33.4,86.7l-0.8,3.5h-8.9l0-0.2h0.2c0.6,0,1.1-0.5,1.1-1.1v-9.6c0-0.6-0.5-1.1-1.1-1.1l-0.2,0l0-0.2h1.4h2.5
			h1.4l0,0.2l-0.2,0c-0.6,0-1.1,0.5-1.1,1.1h0v10.1h2.3c1.7,0,2.8-1.1,3.4-2.8H33.4z"/>
		<path class="st0" d="M50.2,90v0.2H45V90h0.3c0.4,0,0.7-0.4,0.7-0.7c0,0,0-0.1,0-0.1h0l-0.7-6.2l-3.2,5.6c0,0-0.6,1.1-0.7,1.9h-0.2
			l-4.4-7.5l-0.7,6.2c0,0,0,0,0,0.1c0,0.4,0.3,0.7,0.7,0.7h0.3v0.2h-3.6V90h0.3c0.6,0,1.2-0.4,1.3-1.1h0l1.4-11.1h0.2l5.4,8.8
			l5.1-8.8h0.2L48.7,89h0c0.1,0.7,0.6,1.1,1.3,1.1H50.2z"/>
		<path class="st0" d="M67,88.1c-0.8,1.3-2.2,2.3-4.8,2.3c-4.2,0-7-2.4-7-6.3c0-3.9,2.7-6.3,7.1-6.3c1.8,0,3.3,0.4,4.3,0.9l0,3
			l-0.1,0c-0.6-2.3-2.1-3.2-4-3.2c-2.7,0-4.4,2.1-4.4,5.5c0,3.4,1.6,5.5,4.2,5.6c2.7,0,4-1.2,4.5-4.6l0.1,0L67,88.1z"/>
		<path class="st0" d="M73.8,90.2h-5.2l0-0.2h0.2c0.6,0,1.1-0.5,1.1-1.1v-9.6c0-0.6-0.5-1.1-1.1-1.1l-0.2,0l0-0.2h1.4v0h2.5v0h1.4
			l0,0.2l-0.2,0c-0.6,0-1.1,0.5-1.1,1.1v9.6c0,0.6,0.5,1.1,1.1,1.1h0.2L73.8,90.2z"/>
		<path class="st0" d="M85.8,77.8v3l-0.2,0v-0.2c0-1.1-0.7-1.7-1.7-1.8h-2.3V89c0,0.6,0.5,1.1,1.1,1.1h0.2l0,0.2h-5.2l0-0.2h0.2
			c0.6,0,1.1-0.5,1.1-1.1V78.8h-2.3c-1.1,0-1.7,0.7-1.7,1.8v0.2l-0.2,0v-3c0.3,0.1,1.3,0.3,2,0.3h6.9C84.5,78.1,85.4,77.9,85.8,77.8
			z"/>
		<path class="st0" d="M99.2,78.1v0.2h-0.2c-0.7,0-1.4,0.5-1.7,1l-3.4,5.4v4.2h0c0,0.6,0.5,1.1,1.1,1.1h0.2l0,0.2h-5.2l0-0.2h0.2
			c0.6,0,1.1-0.5,1.1-1.1v-4.3l-3.3-5.4c-0.3-0.5-1-1-1.7-1H86v-0.2h5.7v0.2h-0.2c-0.5,0-0.9,0.6-0.6,1.1l2.5,4.5l2.6-4.5
			c0.3-0.5-0.1-1.1-0.6-1.1h-0.2v-0.2H99.2z"/>
	</g>
	<g>
		
			<linearGradient id="SVGID_1_" gradientUnits="userSpaceOnUse" x1="3600.8391" y1="-3709.6296" x2="3600.8391" y2="-3676.1375" gradientTransform="matrix(0 1 -1 0 -3623.052 -3554.9373)">
			<stop  offset="0" style="stop-color:#12732C"/>
			<stop  offset="0.3113" style="stop-color:#429434"/>
			<stop  offset="0.6136" style="stop-color:#6AAE3A"/>
			<stop  offset="0.8531" style="stop-color:#82BF3E"/>
			<stop  offset="1" style="stop-color:#8BC53F"/>
		</linearGradient>
		<path class="st1" d="M80.9,38.9l-27.8,7c0,0,11.3-5.2,17-7.8C74.5,36.2,78.7,36.3,80.9,38.9z M63.2,36c-3.7,3.7-10.1,9.9-10.1,9.9
			l18.4-11.8C69.8,32.9,66.3,32.9,63.2,36z M80.9,52.9l-27.8-7c0,0,11.3,5.2,17,7.8C74.5,55.6,78.7,55.5,80.9,52.9z M71.5,57.7
			L53.1,45.9c0,0,6.4,6.3,10.1,9.9C66.3,58.9,69.8,58.9,71.5,57.7z M86.4,45.9c-2.8-2.5-6.9-2.7-10.9-2.5
			c-7.2,0.4-22.4,2.5-22.4,2.5s15.2,2.1,22.4,2.5C79.5,48.6,83.6,48.4,86.4,45.9z"/>
		
			<linearGradient id="SVGID_2_" gradientUnits="userSpaceOnUse" x1="3600.8391" y1="-3670.5308" x2="3600.8391" y2="-3637.0386" gradientTransform="matrix(0 1 -1 0 -3623.052 -3554.9373)">
			<stop  offset="0" style="stop-color:#8BC53F"/>
			<stop  offset="0.1469" style="stop-color:#82BF3E"/>
			<stop  offset="0.3864" style="stop-color:#6AAE3A"/>
			<stop  offset="0.6887" style="stop-color:#429434"/>
			<stop  offset="1" style="stop-color:#12732C"/>
		</linearGradient>
		<path class="st2" d="M19.5,52.9l27.8-7c0,0-11.3,5.2-17,7.8C25.8,55.6,21.7,55.5,19.5,52.9z M37.2,55.8c3.7-3.7,10.1-9.9,10.1-9.9
			L28.9,57.7C30.6,58.9,34.1,58.9,37.2,55.8z M19.5,38.9l27.8,7c0,0-11.3-5.2-17-7.8C25.8,36.2,21.7,36.3,19.5,38.9z M28.9,34.1
			l18.4,11.8c0,0-6.4-6.3-10.1-9.9C34.1,32.9,30.6,32.9,28.9,34.1z M14,45.9c2.8,2.5,6.9,2.7,10.9,2.5c7.2-0.4,22.4-2.5,22.4-2.5
			s-15.2-2.1-22.4-2.5C20.8,43.2,16.8,43.4,14,45.9z"/>
		
			<linearGradient id="SVGID_3_" gradientUnits="userSpaceOnUse" x1="3564.6379" y1="-3673.2424" x2="3597.9641" y2="-3673.2424" gradientTransform="matrix(0 1 -1 0 -3623.052 -3554.9373)">
			<stop  offset="0" style="stop-color:#12732C"/>
			<stop  offset="0.3113" style="stop-color:#429434"/>
			<stop  offset="0.6136" style="stop-color:#6AAE3A"/>
			<stop  offset="0.8531" style="stop-color:#82BF3E"/>
			<stop  offset="1" style="stop-color:#8BC53F"/>
		</linearGradient>
		<path class="st3" d="M43.1,15.2l7,27.8c0,0-5.2-11.3-7.8-17C40.5,21.5,40.6,17.4,43.1,15.2z M40.3,32.9c3.7,3.7,9.9,10.1,9.9,10.1
			L38.4,24.6C37.2,26.3,37.2,29.8,40.3,32.9z M57.2,15.2l-7,27.8c0,0,5.2-11.3,7.8-17C59.9,21.5,59.8,17.4,57.2,15.2z M62,24.6
			L50.2,43c0,0,6.3-6.4,9.9-10.1C63.2,29.8,63.2,26.3,62,24.6z M50.2,9.7c-2.5,2.8-2.7,6.9-2.5,10.9c0.4,7.2,2.5,22.4,2.5,22.4
			s2.1-15.2,2.5-22.4C52.9,16.6,52.7,12.5,50.2,9.7z"/>
	</g>
</g>
</svg>
