<?xml version="1.0" encoding="UTF-8" standalone="no"?>
<svg width="40px" height="40px" viewBox="0 0 40 40" version="1.1" xmlns="http://www.w3.org/2000/svg" xmlns:xlink="http://www.w3.org/1999/xlink">
    <!-- Generator: Sketch 46.2 (44496) - http://www.bohemiancoding.com/sketch -->
    <title>icon-language</title>
    <desc>Created with Sketch.</desc>
    <defs></defs>
    <g id="Page-1" stroke="none" stroke-width="1" fill="none" fill-rule="evenodd">
        <g id="icon-language" fill-rule="nonzero" fill="#000000">
            <path d="M35.5940212,28.2318757 L29.4680452,28.2318757 C30.1050848,26.0025497 30.4819152,23.6274472 30.5749308,21.1988021 L37.5805687,21.1988021 C37.4160327,23.6847417 36.7368625,26.0704746 35.5940212,28.2318757 L35.5940212,28.2318757 Z M32.4597082,32.4704949 C30.3350444,34.5950806 27.763124,36.1091244 24.9565541,36.9272709 C25.5891384,36.1990135 26.2040575,35.3614041 26.776377,34.4332022 C27.506354,33.2493247 28.1383911,31.9661784 28.667642,30.6094794 L34.0793521,30.6094794 C33.5869947,31.2608231 33.0471135,31.8830897 32.4597082,32.4704949 L32.4597082,32.4704949 Z M21.1880154,37.1532441 L21.1880154,30.6094794 L26.096816,30.6094794 C25.7002881,31.5139975 25.2517028,32.3759942 24.7526233,33.1853081 C23.5083247,35.2034339 22.1784361,36.5052615 21.1880154,37.1532441 L21.1880154,37.1532441 Z M28.1956856,21.1988021 C28.0944627,23.6474573 27.6821457,26.0291256 26.9873426,28.2318757 L21.1879373,28.2318757 L21.1879373,21.1988021 L28.1956856,21.1988021 Z M21.1880154,11.7882029 L26.9874208,11.7882029 C27.6822238,13.9910312 28.0945409,16.3727777 28.1957637,18.8212765 L21.1880154,18.8212765 L21.1880154,11.7882029 Z M21.1880154,2.86683455 C22.1784361,3.51481717 23.5083247,4.81672289 24.7527015,6.83477057 C25.251781,7.64408444 25.7003663,8.5060811 26.0968941,9.41059917 L21.1880936,9.41059917 L21.1880936,2.86683455 L21.1880154,2.86683455 Z M32.4597082,7.54966188 C33.0471135,8.13706711 33.5869166,8.75933365 34.0793521,9.41067734 L28.667642,9.41067734 C28.1383911,8.05397839 27.5064322,6.77083211 26.776377,5.58695458 C26.2040575,4.6587527 25.5892165,3.82114333 24.9565541,3.09288591 C27.7630458,3.91095419 30.3350444,5.42507618 32.4597082,7.54966188 L32.4597082,7.54966188 Z M35.5940212,11.7882029 C36.7370188,13.9496822 37.4161108,16.3353369 37.5806468,18.8212765 L30.5749308,18.8212765 C30.481837,16.3926314 30.1050848,14.0175289 29.4680452,11.7882029 L35.5940212,11.7882029 Z M18.8104117,9.41059917 L13.9016111,9.41059917 C14.298139,8.5060811 14.7467243,7.64408444 15.2458038,6.83477057 C16.4901024,4.81672289 17.8200691,3.514739 18.8104898,2.86683455 L18.8104898,9.41059917 L18.8104117,9.41059917 Z M18.8104117,18.8212765 L11.8026633,18.8212765 C11.9038862,16.3726213 12.3162033,13.990953 13.0110063,11.7882029 L18.8104117,11.7882029 L18.8104117,18.8212765 Z M18.8104117,28.2318757 L13.0110063,28.2318757 C12.3162814,26.0290474 11.9039644,23.6474573 11.8026633,21.1988021 L18.8104117,21.1988021 L18.8104117,28.2318757 Z M18.8104117,37.1532441 C17.8199909,36.5052615 16.4901024,35.2033557 15.2457256,33.1853081 C14.7466461,32.3759942 14.2980608,31.5139975 13.901533,30.6094794 L18.8103335,30.6094794 L18.8103335,37.1532441 L18.8104117,37.1532441 Z M7.5388752,32.4704167 C6.95131364,31.8830115 6.41151051,31.2608231 5.91915315,30.6094013 L11.3309414,30.6094013 C11.8601923,31.9661002 12.4921512,33.2492465 13.2222064,34.433124 C13.794526,35.3613259 14.409445,36.1989353 15.0420293,36.9271927 C12.2355376,36.1091244 9.66353907,34.5950024 7.5388752,32.4704167 L7.5388752,32.4704167 Z M4.40448401,28.2318757 C3.26148645,26.0704746 2.58231625,23.6847417 2.41778025,21.1988021 L9.42341813,21.1988021 C9.51651189,23.6274472 9.89326415,26.0025497 10.5303038,28.2318757 L4.40448401,28.2318757 Z M4.40440585,11.7882029 L10.5303819,11.7882029 C9.89334231,14.0176071 9.51659006,16.3927096 9.42349629,18.8212765 L2.41785842,18.8212765 C2.58239441,16.3353369 3.26156461,13.9496041 4.40440585,11.7882029 L4.40440585,11.7882029 Z M7.53879703,7.54966188 C9.66338274,5.42507618 12.2353813,3.91095419 15.0419511,3.09288591 C14.4093669,3.82114333 13.7944478,4.6587527 13.2221283,5.58695458 C12.4921512,6.77083211 11.8601142,8.05397839 11.3308632,9.41067734 L5.91915315,9.41067734 C6.41158867,8.75933365 6.9513918,8.13706711 7.53879703,7.54966188 L7.53879703,7.54966188 Z M34.1408675,5.86850264 C30.4274346,2.15506981 25.5106613,0.0833232171 20.2700531,0.0140695864 C20.1787571,0.00578416329 20.0881646,0 19.9992135,0 C19.9102625,0 19.81967,0.00578416329 19.728374,0.0140695864 C14.4877657,0.0832450527 9.57099246,2.15499165 5.85755963,5.86842448 C2.08026651,9.64587392 0,14.6680909 0,20.0100002 C0,25.3519095 2.08026651,30.3742047 5.85763779,34.151576 C9.57107062,37.8650088 14.4877657,39.9367554 19.7284522,40.0059309 C19.8197482,40.0142945 19.9103407,40.0200005 19.9992135,40.0200005 C20.0881646,40.0200005 20.1787571,40.0142163 20.2700531,40.0059309 C25.5107395,39.9367554 30.4275128,37.8650088 34.1408675,34.151576 C37.9181606,30.3742829 39.9984271,25.3520658 39.9984271,20.0100002 C39.9985053,14.6680909 37.9182387,9.64587392 34.1408675,5.86850264 L34.1408675,5.86850264 Z" id="Shape"></path>
        </g>
    </g>
</svg>